<?xml version="1.0" encoding="UTF-8"?>
<svg xmlns="http://www.w3.org/2000/svg" xmlns:xlink="http://www.w3.org/1999/xlink" width="204.800003pt" height="204.800003pt" viewBox="0 0 204.800003 204.800003" version="1.1">
<g id="surface1">
<path style=" stroke:none;fill-rule:nonzero;fill:rgb(29%,29%,29%);fill-opacity:0.7;" d="M 0.234375 95.519531 C 20.085938 141.121094 70.457031 148.769531 130.574219 110.113281 C 158.304688 135.777344 165.210938 166.203125 142.074219 196.828125 C 129.871094 201.960938 116.46875 204.800781 102.398438 204.800781 C 45.847656 204.800781 0 158.953125 0 102.398438 C 0 100.085938 0.0859375 97.792969 0.234375 95.519531 Z M 93.882812 75.722656 C 102.847656 38.367188 127.878906 16.9375 167.226562 23.132812 C 190.160156 41.910156 204.800781 70.445312 204.800781 102.398438 C 204.800781 142.714844 181.5 177.582031 147.632812 194.285156 C 178.398438 150.457031 153.257812 104.21875 93.882812 75.722656 Z M 102.402344 0 C 124.347656 0 144.679688 6.90625 161.351562 18.664062 C 105.390625 12.160156 78.960938 58.804688 82.652344 123.21875 C 46.292969 134.371094 16.671875 126.15625 1.015625 87.980469 C 8.023438 38.253906 50.742188 0 102.402344 0 Z M 102.402344 0 "/>
</g>
</svg>
