<?xml version="1.0" standalone="no"?>
<!DOCTYPE svg PUBLIC "-//W3C//DTD SVG 20010904//EN"
 "http://www.w3.org/TR/2001/REC-SVG-20010904/DTD/svg10.dtd">
<svg version="1.0" xmlns="http://www.w3.org/2000/svg"
 width="348.000000pt" height="348.000000pt" viewBox="0 0 348.000000 348.000000"
 preserveAspectRatio="xMidYMid meet">
<metadata>
Created by potrace 1.16, written by Peter Selinger 2001-2019
</metadata>
<g transform="translate(0.000000,348.000000) scale(0.100000,-0.100000)"
fill="#696969" stroke="none">
<path d="M2962 2887 c-18 -50 -115 -136 -208 -184 -448 -232 -1319 -267 -1909
-76 -183 59 -353 170 -390 255 -12 29 -14 -122 -15 -1190 0 -1397 -10 -1254
96 -1351 187 -171 643 -282 1153 -281 217 0 265 2 421 20 95 11 105 13 245 41
222 45 445 141 540 233 93 91 86 -24 83 1355 -3 1005 -5 1208 -16 1178z
m-1729 -1047 l37 -11 0 -84 c0 -47 -1 -85 -3 -85 -2 0 -23 10 -48 22 -27 13
-71 23 -116 26 -70 4 -73 4 -102 -26 -57 -57 -34 -103 81 -162 175 -91 221
-143 220 -255 -1 -156 -112 -240 -317 -238 -60 0 -108 7 -145 19 l-55 19 -3
94 -3 93 33 -21 c49 -33 93 -51 142 -57 92 -13 156 18 156 75 0 42 -32 72
-128 123 -159 82 -209 148 -199 264 8 108 69 176 187 209 60 16 194 14 263 -5z
m639 9 c214 -46 338 -266 287 -511 -23 -112 -98 -216 -187 -262 l-44 -22 111
-104 c61 -56 111 -105 111 -109 0 -3 -54 -5 -119 -3 l-119 3 -77 88 c-74 86
-79 89 -135 100 -189 37 -306 175 -318 370 -5 102 8 170 48 251 29 58 105 137
158 164 81 42 189 55 284 35z m608 -329 l0 -330 150 0 150 0 0 -75 0 -75 -240
0 -240 0 0 405 0 405 90 0 90 0 0 -330z"/>
<path d="M1717 1688 c-47 -13 -94 -59 -121 -118 -28 -63 -28 -197 1 -260 22
-50 66 -98 101 -111 36 -14 130 -11 160 5 76 40 112 116 112 236 0 113 -34
195 -98 232 -36 22 -108 29 -155 16z"/>
</g>
</svg>
