<?xml version="1.0" standalone="no"?>
<!DOCTYPE svg PUBLIC "-//W3C//DTD SVG 20010904//EN"
 "http://www.w3.org/TR/2001/REC-SVG-20010904/DTD/svg10.dtd">
<svg version="1.0" xmlns="http://www.w3.org/2000/svg"
 width="960.000000pt" height="960.000000pt" viewBox="0 0 960.000000 960.000000"
 preserveAspectRatio="xMidYMid meet">
<metadata>
Created by potrace 1.16, written by Peter Selinger 2001-2019
</metadata>
<g transform="translate(0.000000,960.000000) scale(0.100000,-0.100000)"
fill="#696969" stroke="none">
<path d="M2422 8029 c-78 -13 -199 -56 -259 -90 -100 -58 -272 -198 -438 -360
l-90 -87 -90 -17 c-437 -80 -804 -238 -1023 -440 -181 -167 -303 -400 -361
-685 -29 -143 -41 -260 -51 -509 -14 -329 -13 -3611 1 -3686 42 -227 248 -355
569 -355 262 0 453 87 531 243 37 72 42 112 74 547 49 658 103 1200 130 1307
65 255 191 393 393 429 82 14 172 18 210 8 l22 -6 0 -908 c0 -871 1 -910 20
-984 28 -110 63 -170 155 -262 62 -63 100 -90 170 -126 98 -50 207 -87 330
-113 77 -16 80 -17 159 -93 202 -193 558 -286 1026 -269 284 11 483 52 655
137 206 101 319 237 359 433 13 64 16 169 16 653 l0 577 48 -7 c26 -3 79 -9
117 -12 39 -3 85 -7 103 -10 l32 -5 0 -427 c0 -467 3 -500 59 -610 105 -208
330 -343 666 -398 99 -17 115 -22 160 -57 62 -49 183 -110 280 -142 304 -99
806 -108 1144 -20 245 63 437 199 516 367 67 141 65 89 65 1388 l0 1175 36 95
c77 202 111 435 101 690 -17 432 -100 743 -305 1143 -2 4 99 7 225 7 l229 0
64 -63 c116 -113 313 -218 445 -236 122 -18 245 17 306 86 41 48 51 78 47 147
l-3 59 55 21 c70 26 144 97 159 151 28 103 -56 203 -211 251 -53 16 -56 19
-52 44 15 73 -48 171 -134 208 -178 76 -402 -3 -612 -219 l-68 -69 -371 0
-371 0 -96 89 c-316 295 -751 495 -1259 580 -187 31 -293 41 -525 48 -204 5
-1270 -10 -1560 -23 l-135 -6 -19 32 c-31 54 -156 179 -229 231 -220 154 -509
181 -783 73 l-91 -36 -84 40 c-46 23 -111 48 -144 57 -74 19 -242 27 -313 14z
m233 -154 c41 -9 89 -22 107 -29 l32 -14 -55 -27 c-30 -15 -131 -74 -226 -131
l-172 -103 -193 -16 c-106 -8 -206 -18 -223 -21 -30 -5 -30 -5 15 36 94 84
227 190 285 224 142 86 280 112 430 81z m920 -35 c98 -31 167 -73 252 -153
223 -212 350 -582 393 -1146 44 -582 -56 -974 -298 -1164 -106 -83 -202 -122
-400 -162 -150 -31 -233 -68 -300 -133 -70 -69 -105 -145 -110 -246 -4 -72 -2
-84 18 -108 17 -22 30 -28 60 -28 58 0 80 28 80 104 1 121 64 198 197 239 86
27 153 39 153 29 0 -4 -22 -119 -49 -257 -63 -317 -71 -295 109 -295 175 0
169 -6 210 205 25 134 34 163 54 181 23 20 38 22 248 27 251 6 308 16 428 75
105 52 221 168 278 278 123 239 105 516 -42 652 -77 71 -186 105 -371 118
l-100 7 -1 241 c-1 438 -62 810 -178 1086 l-33 78 96 6 c187 12 1358 29 1532
22 807 -30 1422 -287 1817 -760 63 -75 204 -277 198 -283 -2 -2 -50 45 -107
103 -96 98 -223 210 -247 216 -6 2 -112 -132 -236 -297 l-225 -300 172 -6
c200 -8 304 -27 405 -74 128 -60 214 -163 258 -310 26 -85 24 -262 -4 -367
-80 -298 -299 -512 -587 -575 -41 -9 -150 -18 -265 -22 l-194 -6 -28 -137
c-30 -151 -43 -183 -88 -222 -48 -40 -91 -48 -247 -44 -157 3 -174 9 -220 78
-28 41 -29 79 -4 201 10 52 22 111 25 131 l7 37 -43 -19 c-31 -14 -65 -20
-121 -20 l-78 0 -480 -642 c-264 -354 -485 -647 -493 -652 -7 -5 -29 -6 -49
-2 l-37 7 0 73 c0 61 -3 76 -20 91 -32 29 -88 25 -116 -9 -23 -26 -24 -32 -24
-218 l0 -190 -437 -586 -437 -585 -28 108 c-47 181 -119 306 -196 340 -34 15
-43 28 -87 122 -50 108 -113 191 -166 218 -76 40 -160 6 -232 -93 -36 -48 -39
-50 -85 -49 -81 1 -157 -53 -222 -158 l-25 -40 -5 913 -5 914 -24 19 c-48 39
-131 7 -131 -51 l0 -28 -117 40 c-65 21 -169 52 -232 68 -62 16 -115 31 -117
33 -2 2 16 18 40 36 183 138 327 478 352 836 7 90 8 94 33 103 50 18 112 73
151 134 22 34 40 69 40 79 0 26 -28 49 -60 49 -23 0 -33 -7 -46 -32 -85 -167
-242 -195 -380 -68 -24 22 -47 40 -52 40 -20 0 -52 -33 -52 -56 0 -54 121
-147 212 -162 42 -7 43 -8 46 -51 5 -60 -23 -240 -54 -347 -13 -49 -50 -139
-80 -201 -68 -137 -158 -241 -256 -293 -59 -32 -71 -35 -193 -41 -228 -12
-343 -56 -465 -179 -109 -108 -170 -235 -209 -427 -21 -102 -81 -735 -130
-1363 -24 -317 -31 -370 -49 -406 -55 -107 -191 -164 -392 -164 -204 0 -334
55 -393 165 -22 39 -22 49 -29 735 -20 1944 -15 2952 16 3204 43 347 118 567
253 744 242 317 709 507 1436 586 109 12 115 11 106 -5 -24 -46 15 -109 67
-109 17 0 90 41 203 114 454 293 724 434 901 472 91 19 246 12 335 -16z m5455
-769 c15 -10 25 -28 25 -42 0 -23 -3 -24 -105 -32 -58 -4 -145 -14 -195 -22
-49 -8 -91 -13 -93 -11 -5 6 89 71 135 95 88 44 183 49 233 12z m177 -246 c53
-16 116 -53 117 -70 1 -16 -64 -54 -123 -73 -76 -23 -297 -23 -446 2 -133 21
-275 56 -275 66 0 10 128 44 240 64 203 37 385 41 487 11z m-248 -313 c136 -7
144 -8 152 -29 6 -17 3 -29 -16 -50 -22 -27 -27 -28 -117 -28 -91 0 -95 1
-188 47 -52 26 -108 58 -124 71 l-29 23 89 -13 c49 -7 154 -17 233 -21z
m-4459 -714 c50 -15 100 -55 116 -94 30 -72 10 -233 -43 -340 -56 -114 -144
-162 -338 -184 -175 -19 -246 -8 -244 38 0 9 30 41 66 71 119 99 221 268 265
444 l23 89 60 -6 c33 -4 76 -12 95 -18z m-2180 -1523 c52 -14 157 -46 233 -71
l137 -46 0 -761 -1 -762 -28 80 c-32 92 -51 131 -84 171 -13 16 -34 61 -47 99
-83 255 -199 336 -305 212 l-35 -41 0 572 c0 538 1 572 18 572 9 0 60 -11 112
-25z m52 -1102 c30 -32 73 -115 99 -190 15 -45 16 -53 3 -53 -65 0 -142 -137
-185 -330 -20 -92 -25 -233 -9 -274 11 -30 9 -31 -28 -12 -42 22 -89 76 -114
131 -21 45 -23 64 -22 185 1 112 5 152 27 235 37 138 82 246 124 294 41 49 69
52 105 14z m3192 -36 c28 -28 52 -70 74 -124 17 -45 32 -86 32 -91 0 -5 -14
-15 -30 -22 -55 -23 -113 -127 -150 -266 -31 -121 -42 -226 -31 -291 6 -31 9
-58 6 -61 -10 -11 -76 43 -105 85 -79 120 -80 297 -4 553 42 139 115 260 157
260 6 0 29 -19 51 -43z m1030 -247 c18 -10 47 -40 65 -65 32 -45 101 -184 101
-204 0 -6 -18 -29 -39 -50 -130 -130 -218 -511 -153 -655 13 -28 34 -64 47
-82 l25 -32 -50 -11 c-135 -29 -272 64 -333 226 -31 82 -30 259 3 393 51 212
131 391 206 460 50 45 80 50 128 20z m-4069 -34 c52 -52 108 -212 127 -359 10
-79 9 -100 -5 -147 -22 -72 -49 -116 -89 -140 -75 -46 -153 -13 -203 84 -25
51 -30 70 -29 135 0 137 66 359 124 421 34 36 44 37 75 6z m858 -7 c58 -30
121 -118 167 -231 l23 -57 -40 -40 c-48 -49 -92 -129 -127 -236 -29 -85 -56
-225 -56 -284 0 -60 28 -153 61 -200 39 -56 29 -66 -59 -66 -81 1 -149 32
-206 95 -128 142 -138 365 -31 687 58 174 122 283 190 324 35 22 48 23 78 8z
m2335 -22 c57 -61 123 -279 124 -414 1 -72 -3 -90 -28 -140 -69 -139 -199
-139 -268 0 -25 50 -29 68 -28 140 1 135 67 353 124 414 27 29 49 29 76 0z
m587 -94 c-40 -99 -88 -251 -104 -330 -41 -201 -37 -318 14 -430 21 -47 22
-53 7 -53 -32 0 -117 48 -154 86 -85 89 -101 202 -53 369 62 215 177 375 269
375 23 0 27 -3 21 -17z m-3185 -37 c0 -2 -16 -46 -36 -98 -46 -121 -80 -258
-95 -380 -14 -113 -3 -205 35 -300 l24 -59 -22 6 c-59 17 -129 60 -160 98 -52
64 -69 111 -68 197 1 180 136 470 244 523 30 15 78 23 78 13z m3742 -156 c14
-11 44 -55 66 -98 84 -161 124 -381 88 -489 -18 -55 -73 -126 -115 -147 -101
-52 -207 -9 -269 108 -24 46 -27 61 -26 151 0 124 28 234 89 362 62 127 109
159 167 113z m-3182 -61 c78 -79 160 -321 160 -474 0 -186 -145 -320 -283
-261 -52 22 -114 97 -133 162 -41 143 39 459 144 567 44 45 71 47 112 6z"/>
<path d="M1210 6736 c-150 -32 -245 -80 -332 -167 -51 -50 -58 -62 -58 -96 0
-51 34 -85 85 -85 31 0 46 10 114 75 121 116 257 172 440 184 62 4 104 1 149
-11 80 -20 95 -20 122 2 65 52 -75 101 -310 107 -99 3 -165 0 -210 -9z"/>
<path d="M5320 6452 c-19 -16 -38 -100 -161 -731 -76 -393 -139 -726 -139
-740 0 -46 14 -51 151 -51 118 0 130 2 153 23 23 20 32 56 101 417 62 321 80
399 98 418 20 21 28 22 176 22 240 0 267 -14 265 -134 -1 -41 -28 -206 -64
-389 -77 -389 -86 -357 101 -357 119 0 130 2 153 23 23 20 32 56 96 386 38
200 70 387 70 416 0 134 -65 230 -178 265 -86 27 -213 40 -388 40 -122 0 -145
3 -164 18 l-23 19 32 164 c17 90 31 167 31 171 0 4 -7 14 -16 22 -24 25 -263
23 -294 -2z"/>
<path d="M1510 6289 c-100 -26 -252 -101 -299 -148 -55 -55 -85 -123 -89 -204
-6 -90 9 -136 77 -236 45 -69 66 -90 111 -115 50 -28 63 -31 140 -31 103 0
172 28 249 100 70 66 101 131 101 214 0 79 -23 134 -72 177 -58 51 -114 67
-213 62 -46 -2 -84 -3 -82 -2 1 1 44 30 95 64 87 58 138 112 126 132 -8 13
-64 8 -144 -13z m119 -255 c69 -35 101 -83 108 -163 7 -70 -1 -79 -17 -21 -22
81 -114 149 -185 136 -36 -7 -80 -37 -95 -67 -9 -16 -4 -22 42 -45 l52 -26
-26 -23 c-15 -13 -37 -30 -49 -39 l-22 -15 27 -36 c34 -44 79 -68 133 -69 50
-1 47 -9 -19 -42 -215 -109 -427 70 -324 273 70 139 243 202 375 137z"/>
<path d="M6592 6037 c-20 -21 -41 -118 -162 -740 -77 -394 -140 -723 -140
-731 0 -38 27 -46 160 -46 171 0 164 -6 201 186 34 175 42 198 75 213 15 7 90
11 195 11 335 0 462 41 621 200 71 71 95 102 127 171 58 120 75 194 74 319 0
118 -19 186 -73 265 -53 78 -120 116 -260 151 -64 15 -130 18 -435 22 l-360 4
-23 -25z m623 -228 c81 -14 133 -45 159 -94 47 -89 9 -304 -71 -409 -45 -59
-101 -90 -199 -110 -86 -18 -271 -31 -307 -22 -50 12 -50 25 8 322 67 345 52
324 227 324 67 0 149 -5 183 -11z"/>
<path d="M6960 5707 c0 -2 -18 -93 -40 -202 -22 -109 -40 -205 -40 -213 0 -11
13 -13 73 -7 210 20 268 54 308 184 26 89 31 183 9 205 -22 22 -107 36 -216
36 -52 0 -94 -1 -94 -3z"/>
</g>
</svg>
