<?xml version="1.0" encoding="UTF-8"?>
<svg xmlns="http://www.w3.org/2000/svg" xmlns:xlink="http://www.w3.org/1999/xlink" width="204.800003pt" height="215.199997pt" viewBox="0 0 204.800003 215.199997" version="1.1">
<g id="surface1">
<path style=" stroke:none;fill-rule:nonzero;fill:rgb(48%,48%,48%);fill-opacity:1;" d="M 187.324219 0.00390625 C 187.847656 -0.03125 188.34375 0.238281 188.605469 0.695312 C 188.863281 1.148438 188.84375 1.714844 188.546875 2.148438 L 135.511719 74.195312 C 135.121094 74.632812 134.5625 74.882812 133.976562 74.882812 C 133.390625 74.882812 132.832031 74.632812 132.445312 74.195312 L 113.742188 53.347656 C 113.285156 52.875 112.640625 52.632812 111.984375 52.691406 C 111.328125 52.75 110.734375 53.105469 110.371094 53.652344 L 99.027344 68.0625 C 98.667969 68.875 98.785156 69.816406 99.335938 70.515625 L 133.058594 105.464844 C 133.445312 105.90625 134.003906 106.15625 134.589844 106.15625 C 135.175781 106.15625 135.734375 105.90625 136.125 105.464844 L 202.34375 30.96875 C 202.734375 30.546875 203.339844 30.402344 203.878906 30.605469 C 204.417969 30.808594 204.777344 31.3125 204.796875 31.886719 L 204.796875 213.074219 C 204.824219 213.488281 204.667969 213.894531 204.375 214.1875 C 204.082031 214.480469 203.679688 214.632812 203.265625 214.609375 L 1.535156 214.609375 C 1.121094 214.632812 0.71875 214.480469 0.425781 214.1875 C 0.128906 213.894531 -0.0234375 213.488281 0.00390625 213.074219 L 0.00390625 1.535156 C -0.0234375 1.121094 0.128906 0.71875 0.425781 0.425781 C 0.71875 0.128906 1.121094 -0.0234375 1.535156 0.00390625 Z M 135.203125 122.328125 C 126.078125 122.167969 117.28125 125.742188 110.855469 132.226562 C 104.429688 138.710938 100.929688 147.539062 101.171875 156.664062 C 101.171875 177.820312 116.503906 191.308594 136.429688 191.308594 C 145.65625 191.539062 154.699219 188.738281 162.183594 183.335938 C 162.875 182.707031 163.007812 181.664062 162.488281 180.882812 L 156.972656 172.605469 C 156.351562 171.894531 155.292969 171.761719 154.519531 172.300781 C 149.722656 175.574219 144.078125 177.386719 138.269531 177.511719 C 127.539062 177.511719 120.792969 170.765625 119.570312 162.796875 C 119.589844 162.46875 119.851562 162.207031 120.179688 162.183594 L 166.476562 162.183594 C 167.460938 162.117188 168.246094 161.332031 168.3125 160.34375 L 168.3125 158.503906 C 168.3125 137.042969 154.824219 122.328125 135.203125 122.328125 Z M 89.523438 110.675781 C 80.210938 103.066406 68.429688 99.140625 56.414062 99.640625 C 35.566406 99.640625 22.691406 111.902344 22.691406 126.621094 C 22.691406 160.035156 73.582031 149.304688 73.582031 164.941406 C 73.582031 169.847656 68.675781 174.753906 58.253906 174.753906 C 48.351562 174.835938 38.800781 171.101562 31.582031 164.328125 C 31.148438 163.925781 30.566406 163.726562 29.976562 163.789062 C 29.390625 163.847656 28.855469 164.15625 28.515625 164.636719 L 20.542969 175.671875 C 20.027344 176.453125 20.15625 177.496094 20.851562 178.125 C 29.128906 185.789062 40.777344 191 57.027344 191 C 80.941406 191 92.589844 178.738281 93.203125 162.796875 C 93.203125 129.683594 42.3125 139.191406 42.3125 125.085938 C 42.3125 119.875 46.910156 116.195312 54.878906 116.195312 C 63.667969 116.074219 72.226562 119 79.101562 124.472656 C 79.503906 124.804688 80.023438 124.957031 80.542969 124.902344 C 81.0625 124.84375 81.539062 124.578125 81.859375 124.167969 L 89.832031 113.4375 C 90.160156 113.03125 90.316406 112.511719 90.257812 111.992188 C 90.199219 111.472656 89.933594 111 89.523438 110.675781 Z M 135.511719 135.816406 C 143.847656 135.351562 151.046875 141.597656 151.757812 149.917969 C 151.738281 150.25 151.476562 150.511719 151.144531 150.53125 L 119.875 150.53125 C 119.546875 150.511719 119.285156 150.25 119.261719 149.917969 C 120.285156 141.761719 127.289062 135.683594 135.511719 135.816406 Z M 135.511719 135.816406 "/>
</g>
</svg>
